<svg xmlns="http://www.w3.org/2000/svg" width="512" height="640" viewBox="0 0 512 640">
<defs>
<linearGradient id="bg" x1="0" y1="0" x2="0" y2="1"><stop offset="0" stop-color="#12301c"/><stop offset="1" stop-color="#050a14"/></linearGradient>
<radialGradient id="glow" cx="0.5" cy="0.4" r="0.5"><stop offset="0" stop-color="#8df0a4" stop-opacity="0.38"/><stop offset="1" stop-color="#8df0a4" stop-opacity="0"/></radialGradient>
<linearGradient id="skin" x1="0" y1="0" x2="0" y2="1"><stop offset="0" stop-color="#f0ccaf"/><stop offset="1" stop-color="#dfae8d"/></linearGradient>
</defs>
<rect width="512" height="640" fill="url(#bg)"/>
<circle cx="256" cy="262" r="236" fill="url(#glow)"/>
<g stroke="#8df0a4" stroke-opacity="0.16" stroke-width="2" fill="none"><path d="M36 84h120M356 84h120M36 104h56M420 104h56M36 588h60M416 588h60"/><circle cx="256" cy="262" r="214"/></g>
<path d="M146 250 C132 150 196 104 258 104 C322 104 384 150 368 250 C376 310 392 360 380 420 C372 460 344 470 330 450 C344 420 334 390 320 370 L196 370 C182 390 168 420 182 450 C168 470 140 460 132 420 C120 360 138 310 146 250 Z" fill="#8a4b2e"/>
<path d="M60 640 C68 546 120 476 210 448 L256 476 L302 448 C392 476 444 546 452 640 Z" fill="#3d7550"/><path d="M204 440 C220 472 292 472 308 440 C322 460 318 488 296 502 C276 488 236 488 216 502 C194 488 190 460 204 440 Z" fill="#b8e6c2"/><rect x="138" y="544" width="72" height="42" rx="6" fill="#335f42"/><path d="M370 548 C388 530 410 532 414 544 C400 558 384 562 370 548 Z" fill="#8df0a4"/>
<path d="M228 330 L228 440 C240 456 272 456 284 440 L284 330 Z" fill="#d6a384"/>
<ellipse cx="176" cy="272" rx="13" ry="22" fill="#d6a384"/><ellipse cx="336" cy="272" rx="13" ry="22" fill="#d6a384"/>
<path d="M176 240 C176 172 212 142 256 142 C300 142 336 172 336 240 C336 302 316 350 256 378 C196 350 176 302 176 240 Z" fill="url(#skin)"/>
<path d="M196 232 Q217 218 240 230" stroke="#6e3a22" stroke-width="6" fill="none" stroke-linecap="round"/>
<path d="M272 230 Q295 218 316 232" stroke="#6e3a22" stroke-width="6" fill="none" stroke-linecap="round"/>
<ellipse cx="218" cy="268" rx="18" ry="10" fill="#fbfdff"/><circle cx="219" cy="270" r="9" fill="#4f9e62"/><circle cx="219" cy="270" r="4.5" fill="#101820"/><circle cx="222" cy="266" r="3" fill="#ffffff"/>
<ellipse cx="294" cy="268" rx="18" ry="10" fill="#fbfdff"/><circle cx="293" cy="270" r="9" fill="#4f9e62"/><circle cx="293" cy="270" r="4.5" fill="#101820"/><circle cx="296" cy="266" r="3" fill="#ffffff"/>
<path d="M199 266 Q218 250 238 265" stroke="#2e1c14" stroke-width="4" fill="none" stroke-linecap="round"/>
<path d="M274 265 Q294 250 313 266" stroke="#2e1c14" stroke-width="4" fill="none" stroke-linecap="round"/>
<path d="M204 278 Q218 284 232 278" stroke="#2e1c14" stroke-width="2.5" fill="none" stroke-linecap="round" opacity="0.55"/>
<path d="M280 278 Q294 284 308 278" stroke="#2e1c14" stroke-width="2.5" fill="none" stroke-linecap="round" opacity="0.55"/>
<ellipse cx="198" cy="302" rx="17" ry="8" fill="#ff8f9a" opacity="0.28"/><ellipse cx="314" cy="302" rx="17" ry="8" fill="#ff8f9a" opacity="0.28"/>
<path d="M257 288 Q251 304 259 308" stroke="#c68d72" stroke-width="3" fill="none" stroke-linecap="round"/>
<path d="M236 326 Q256 346 276 326 Q256 334 236 326 Z" fill="#a5585a"/>
<path d="M242 329 Q256 338 270 329 Q256 332 242 329 Z" fill="#ffffff" opacity="0.85"/>
<path d="M158 250 C146 164 200 112 260 112 C326 112 372 160 358 246 C350 214 332 190 306 178 C300 206 280 222 250 226 C262 208 262 192 252 180 C226 206 196 222 166 236 C164 240 160 246 158 250 Z" fill="#9a5636"/><path d="M150 300 C140 330 150 360 144 390" stroke="#a8633f" stroke-width="6" fill="none" stroke-linecap="round" opacity="0.8"/><path d="M364 300 C374 330 364 360 370 390" stroke="#a8633f" stroke-width="6" fill="none" stroke-linecap="round" opacity="0.8"/><path d="M236 128 C266 120 300 128 322 146" stroke="#b56c47" stroke-width="5" fill="none" stroke-linecap="round" opacity="0.8"/>
<path d="M178 198 C194 170 226 168 234 182 C222 198 198 206 178 198 Z" fill="#8df0a4"/><path d="M180 198 L232 182" stroke="#3f7a52" stroke-width="2.5"/>
</svg>
