<svg xmlns="http://www.w3.org/2000/svg" width="512" height="640" viewBox="0 0 512 640">
<defs>
<linearGradient id="bg" x1="0" y1="0" x2="0" y2="1"><stop offset="0" stop-color="#2c1426"/><stop offset="1" stop-color="#050a14"/></linearGradient>
<radialGradient id="glow" cx="0.5" cy="0.4" r="0.5"><stop offset="0" stop-color="#ff9ed1" stop-opacity="0.38"/><stop offset="1" stop-color="#ff9ed1" stop-opacity="0"/></radialGradient>
<linearGradient id="skin" x1="0" y1="0" x2="0" y2="1"><stop offset="0" stop-color="#f8e0d2"/><stop offset="1" stop-color="#ecc4b2"/></linearGradient>
</defs>
<rect width="512" height="640" fill="url(#bg)"/>
<circle cx="256" cy="262" r="236" fill="url(#glow)"/>
<g stroke="#ff9ed1" stroke-opacity="0.16" stroke-width="2" fill="none"><path d="M36 84h120M356 84h120M36 104h56M420 104h56M36 588h60M416 588h60"/><circle cx="256" cy="262" r="214"/></g>
<path d="M150 256 C140 160 198 116 256 116 C314 116 372 160 362 256 C364 300 360 336 352 356 C330 360 322 330 324 300 L188 300 C190 330 182 360 160 356 C152 336 148 300 150 256 Z" fill="#5a3b4e"/>
<path d="M64 640 C72 548 124 476 214 448 L256 474 L298 448 C388 476 440 548 448 640 Z" fill="#3d3048"/><path d="M214 448 L256 474 L298 448 L284 438 L256 456 L228 438 Z" fill="#f1e6ef"/><path d="M226 466 L256 486 L286 466 L276 640 L236 640 Z" fill="#e9dbe6"/><circle cx="256" cy="530" r="5" fill="#ff9ed1"/><circle cx="256" cy="580" r="5" fill="#ff9ed1"/><rect x="92" y="556" width="112" height="84" rx="9" fill="#241c2b" stroke="#ff9ed1" stroke-width="3"/><path d="M108 578 h72 M108 594 h54 M108 610 h64" stroke="#ff9ed1" stroke-width="3" opacity="0.6"/>
<path d="M228 330 L228 440 C240 456 272 456 284 440 L284 330 Z" fill="#e3b8a6"/>
<ellipse cx="176" cy="272" rx="13" ry="22" fill="#e3b8a6"/><ellipse cx="336" cy="272" rx="13" ry="22" fill="#e3b8a6"/>
<path d="M176 240 C176 172 212 142 256 142 C300 142 336 172 336 240 C336 302 316 350 256 378 C196 350 176 302 176 240 Z" fill="url(#skin)"/>
<path d="M196 232 Q217 218 240 230" stroke="#4a2f40" stroke-width="6" fill="none" stroke-linecap="round"/>
<path d="M272 230 Q295 218 316 232" stroke="#4a2f40" stroke-width="6" fill="none" stroke-linecap="round"/>
<ellipse cx="218" cy="268" rx="18" ry="10" fill="#fbfdff"/><circle cx="219" cy="270" r="9" fill="#b0607f"/><circle cx="219" cy="270" r="4.5" fill="#101820"/><circle cx="222" cy="266" r="3" fill="#ffffff"/>
<ellipse cx="294" cy="268" rx="18" ry="10" fill="#fbfdff"/><circle cx="293" cy="270" r="9" fill="#b0607f"/><circle cx="293" cy="270" r="4.5" fill="#101820"/><circle cx="296" cy="266" r="3" fill="#ffffff"/>
<path d="M199 266 Q218 250 238 265" stroke="#2c2230" stroke-width="4" fill="none" stroke-linecap="round"/>
<path d="M274 265 Q294 250 313 266" stroke="#2c2230" stroke-width="4" fill="none" stroke-linecap="round"/>
<path d="M204 278 Q218 284 232 278" stroke="#2c2230" stroke-width="2.5" fill="none" stroke-linecap="round" opacity="0.55"/>
<path d="M280 278 Q294 284 308 278" stroke="#2c2230" stroke-width="2.5" fill="none" stroke-linecap="round" opacity="0.55"/>
<ellipse cx="198" cy="302" rx="17" ry="8" fill="#ff8f9a" opacity="0.28"/><ellipse cx="314" cy="302" rx="17" ry="8" fill="#ff8f9a" opacity="0.28"/>
<path d="M257 288 Q251 304 259 308" stroke="#d09a8a" stroke-width="3" fill="none" stroke-linecap="round"/>
<path d="M236 326 Q256 346 276 326 Q256 334 236 326 Z" fill="#b05a6e"/>
<path d="M242 329 Q256 338 270 329 Q256 332 242 329 Z" fill="#ffffff" opacity="0.85"/>
<path d="M160 240 C154 166 202 122 256 122 C310 122 358 166 352 240 C340 234 330 231 322 229 L190 229 C182 231 172 234 160 240 Z" fill="#5a3b4e"/><path d="M166 236 C158 292 168 332 186 350 C188 312 186 272 186 236 Z" fill="#5a3b4e"/><path d="M346 236 C354 292 344 332 326 350 C324 312 326 272 326 236 Z" fill="#5a3b4e"/><path d="M220 138 C248 130 282 132 304 142" stroke="#7a5569" stroke-width="5" fill="none" stroke-linecap="round" opacity="0.8"/><rect x="298" y="200" width="36" height="9" rx="4" fill="#ff9ed1" transform="rotate(-20 316 204)"/>
<circle cx="218" cy="266" r="27" fill="none" stroke="#3a2f3a" stroke-width="4"/><circle cx="294" cy="266" r="27" fill="none" stroke="#3a2f3a" stroke-width="4"/><path d="M245 262 Q256 255 267 262" stroke="#3a2f3a" stroke-width="4" fill="none"/><path d="M200 252 l10 -6" stroke="#ffffff" stroke-width="3" opacity="0.5" stroke-linecap="round"/>
</svg>
