<svg xmlns="http://www.w3.org/2000/svg" width="512" height="640" viewBox="0 0 512 640">
<defs>
<linearGradient id="bg" x1="0" y1="0" x2="0" y2="1"><stop offset="0" stop-color="#33280e"/><stop offset="1" stop-color="#050a14"/></linearGradient>
<radialGradient id="glow" cx="0.5" cy="0.4" r="0.5"><stop offset="0" stop-color="#ffd15c" stop-opacity="0.38"/><stop offset="1" stop-color="#ffd15c" stop-opacity="0"/></radialGradient>
<linearGradient id="skin" x1="0" y1="0" x2="0" y2="1"><stop offset="0" stop-color="#efc49f"/><stop offset="1" stop-color="#d9a57f"/></linearGradient>
</defs>
<rect width="512" height="640" fill="url(#bg)"/>
<circle cx="256" cy="262" r="236" fill="url(#glow)"/>
<g stroke="#ffd15c" stroke-opacity="0.16" stroke-width="2" fill="none"><path d="M36 84h120M356 84h120M36 104h56M420 104h56M36 588h60M416 588h60"/><circle cx="256" cy="262" r="214"/></g>
<path d="M318 150 C382 150 408 212 396 292 C390 334 374 364 350 384 C366 332 366 272 340 222 Z" fill="#4a3222"/><path d="M168 236 C160 160 206 122 256 122 C306 122 352 160 344 236 C340 216 332 200 320 190 L192 190 C180 200 172 216 168 236 Z" fill="#4a3222"/>
<path d="M58 640 C66 546 120 474 212 446 L256 470 L300 446 C392 474 446 546 454 640 Z" fill="#2a3348"/><path d="M110 504 C130 472 170 458 208 454 L196 506 Z" fill="#39445e"/><path d="M402 504 C382 472 342 458 304 454 L316 506 Z" fill="#39445e"/><path d="M204 418 L308 418 L316 454 L256 480 L196 454 Z" fill="#1d2436" stroke="#ffd15c" stroke-width="3"/><path d="M150 546 l15 -11 l15 11 l-4 19 h-22 z" fill="#ffd15c"/><path d="M340 540 h60" stroke="#ffd15c" stroke-width="4" opacity="0.7"/>
<path d="M228 330 L228 440 C240 456 272 456 284 440 L284 330 Z" fill="#cf9a75"/>
<ellipse cx="176" cy="272" rx="13" ry="22" fill="#cf9a75"/><ellipse cx="336" cy="272" rx="13" ry="22" fill="#cf9a75"/>
<path d="M176 240 C176 172 212 142 256 142 C300 142 336 172 336 240 C336 302 316 350 256 378 C196 350 176 302 176 240 Z" fill="url(#skin)"/>
<path d="M196 232 Q217 218 240 230" stroke="#3a281c" stroke-width="6" fill="none" stroke-linecap="round"/>
<path d="M272 230 Q295 218 316 232" stroke="#3a281c" stroke-width="6" fill="none" stroke-linecap="round"/>
<ellipse cx="218" cy="268" rx="18" ry="10" fill="#fbfdff"/><circle cx="219" cy="270" r="9" fill="#b58a2a"/><circle cx="219" cy="270" r="4.5" fill="#101820"/><circle cx="222" cy="266" r="3" fill="#ffffff"/>
<ellipse cx="294" cy="268" rx="18" ry="10" fill="#fbfdff"/><circle cx="293" cy="270" r="9" fill="#b58a2a"/><circle cx="293" cy="270" r="4.5" fill="#101820"/><circle cx="296" cy="266" r="3" fill="#ffffff"/>
<path d="M199 266 Q218 250 238 265" stroke="#2a1e16" stroke-width="4" fill="none" stroke-linecap="round"/>
<path d="M274 265 Q294 250 313 266" stroke="#2a1e16" stroke-width="4" fill="none" stroke-linecap="round"/>
<path d="M204 278 Q218 284 232 278" stroke="#2a1e16" stroke-width="2.5" fill="none" stroke-linecap="round" opacity="0.55"/>
<path d="M280 278 Q294 284 308 278" stroke="#2a1e16" stroke-width="2.5" fill="none" stroke-linecap="round" opacity="0.55"/>
<ellipse cx="198" cy="302" rx="17" ry="8" fill="#ff8f9a" opacity="0.28"/><ellipse cx="314" cy="302" rx="17" ry="8" fill="#ff8f9a" opacity="0.28"/>
<path d="M257 288 Q251 304 259 308" stroke="#b98567" stroke-width="3" fill="none" stroke-linecap="round"/>
<path d="M236 326 Q256 346 276 326 Q256 334 236 326 Z" fill="#9a5248"/>
<path d="M242 329 Q256 338 270 329 Q256 332 242 329 Z" fill="#ffffff" opacity="0.85"/>
<path d="M170 226 C166 160 206 124 256 122 C306 124 346 160 342 226 C326 190 296 170 256 168 C216 170 186 190 170 226 Z" fill="#4a3222"/><path d="M176 230 C168 262 170 302 182 328 C186 292 188 260 194 236 Z" fill="#4a3222"/><path d="M226 140 C250 132 280 134 300 144" stroke="#6b4a33" stroke-width="5" fill="none" stroke-linecap="round" opacity="0.8"/><path d="M322 164 C334 170 338 180 336 190" stroke="#ffd15c" stroke-width="6" fill="none" stroke-linecap="round"/>
<path d="M172 256 C152 258 150 292 172 298" stroke="#ffd15c" stroke-width="5" fill="none"/><circle cx="170" cy="278" r="8" fill="#1d2436"/><path d="M166 298 C170 332 200 352 224 348" stroke="#ffd15c" stroke-width="3" fill="none"/>
</svg>
